# xmcd
#
# Track frame offsets: 
#        150
#        16776
#        45177
#        67110
#        85646
#        107433
#        122607
#        142276
#        159697
#        176836
#        194268
#        219379
#        246384
#        275661
#        305570
#
# Disc length: 4277 seconds
#
# Revision: 0
# Processed by: cddbd v1.5.2PL0 Copyright (c) Steve Scherf et al.
# Submitted via: ExactAudioCopy v0.99pb4
#
DISCID=d510b30f
DTITLE=Various Artist - Вечеринка в стиле DISCO 3
DYEAR=2001
DGENRE=House
TTITLE0=Twin - A New Day
TTITLE1=Moloko - Sing It Back
TTITLE2=DJ Antoine vs. Mad Mark - Discosensation
TTITLE3=Loverush - Luv 2 See Ya
TTITLE4=Soul Providers - Rise
TTITLE5=Future Groove Express - Thru Tha Roof
TTITLE6=Jazzy M - Jazzin The Way You Know
TTITLE7=Afro Medusa - Pasilda
TTITLE8=Master Freakz - Let Yourself Go
TTITLE9=Robbie Rivera Pres. Rhithm Ban - Bang!
TTITLE10=Andy Mathee vs. Billy Jack Wil - Party Children
TTITLE11=Funkstar De Luxe vs. Terry Max - Walkin In The Name
TTITLE12=DJ Antoine vs. Mad Mark - La Chitara
TTITLE13=Frist Choise - The Plaer
TTITLE14=Different Gear vs. The Police - When The World Is Run
EXTD=
EXTT0=
EXTT1=
EXTT2=
EXTT3=
EXTT4=
EXTT5=
EXTT6=
EXTT7=
EXTT8=
EXTT9=
EXTT10=
EXTT11=
EXTT12=
EXTT13=
EXTT14=
PLAYORDER=
